<svg width="551" height="532" viewBox="0 0 551 532" fill="none" xmlns="http://www.w3.org/2000/svg">
<g clip-path="url(#clip0_166_790)">
<rect width="551" height="532" fill="#1B1F24"/>
<g clip-path="url(#clip1_166_790)">
<path d="M460.267 45.1265L473.909 71.4258L498.688 87.6673L472.389 101.31L456.147 126.088L442.505 99.789L417.726 83.5476L444.026 69.9052L460.267 45.1265Z" fill="#DB504A"/>
<path d="M238.641 327.022L242.141 333.769L248.498 337.936L241.751 341.436L237.584 347.794L234.083 341.046L227.726 336.879L234.474 333.379L238.641 327.022Z" fill="#DB504A"/>
<path d="M275.334 -58.7402L288.976 -32.4409L313.755 -16.1994L287.455 -2.55705L271.214 22.2217L257.572 -4.07765L232.793 -20.3191L259.092 -33.9615L275.334 -58.7402Z" fill="#FCB999"/>
<path d="M491.667 190L494.633 194.634L499.267 197.6L494.633 200.566L491.667 205.2L488.7 200.566L484.067 197.6L488.7 194.634L491.667 190Z" fill="#DB504A"/>
<path d="M366.267 410.4L373.683 421.984L385.267 429.4L373.683 436.816L366.267 448.4L358.85 436.816L347.267 429.4L358.85 421.984L366.267 410.4Z" fill="#FCB999"/>
<path d="M-98.4878 -75.9998C-151.474 -18.7514 -255.486 115.436 -247.647 194.198C-237.848 292.651 -112.512 270.417 -94.1332 264.209C-81.2449 259.855 56.1147 190.916 81.156 119.812C106.197 48.7069 29.9191 55.2318 22.3634 57.4582C-10.3081 67.0855 -60.3819 88.0879 -108.287 181.071C-156.192 274.054 -163.813 342.971 -128.973 375.788C-101.101 402.042 -36.6387 399.685 23.0425 395.213C126.817 387.437 210.282 321.53 265.155 283.899C320.028 246.268 526.819 98.2979 623.355 29.0164" stroke="#DB504A" stroke-width="1.07583" stroke-linecap="round"/>
<path d="M122.808 142.488L128.952 118.968H135.72L126.312 153H119.496L111.72 128.76L103.944 153H97.032L87.576 118.968H94.584L100.824 142.392L108.36 118.968H115.224L122.808 142.488ZM142.548 138.504H153.108C153.044 137.192 152.564 136.088 151.668 135.192C150.804 134.296 149.524 133.848 147.828 133.848C146.292 133.848 145.044 134.328 144.084 135.288C143.124 136.248 142.612 137.32 142.548 138.504ZM153.732 144.648L159.06 146.232C158.42 148.408 157.156 150.2 155.268 151.608C153.412 153.016 151.092 153.72 148.308 153.72C144.916 153.72 142.036 152.584 139.668 150.312C137.3 148.008 136.116 144.936 136.116 141.096C136.116 137.448 137.268 134.472 139.572 132.168C141.876 129.832 144.596 128.664 147.732 128.664C151.38 128.664 154.228 129.752 156.276 131.928C158.356 134.104 159.396 137.096 159.396 140.904C159.396 141.16 159.38 141.448 159.348 141.768C159.348 142.088 159.348 142.344 159.348 142.536L159.3 142.872H142.404C142.468 144.408 143.076 145.688 144.228 146.712C145.38 147.736 146.756 148.248 148.356 148.248C151.076 148.248 152.868 147.048 153.732 144.648ZM162.984 146.568C162.984 144.552 163.64 142.936 164.952 141.72C166.264 140.504 167.96 139.736 170.04 139.416L175.848 138.552C177.032 138.392 177.624 137.832 177.624 136.872C177.624 135.976 177.272 135.24 176.568 134.664C175.896 134.088 174.92 133.8 173.64 133.8C172.296 133.8 171.224 134.168 170.424 134.904C169.656 135.64 169.224 136.552 169.128 137.64L163.464 136.44C163.688 134.392 164.696 132.584 166.488 131.016C168.28 129.448 170.648 128.664 173.592 128.664C177.112 128.664 179.704 129.512 181.368 131.208C183.032 132.872 183.864 135.016 183.864 137.64V149.256C183.864 150.664 183.96 151.912 184.152 153H178.296C178.136 152.296 178.056 151.352 178.056 150.168C176.552 152.504 174.232 153.672 171.096 153.672C168.664 153.672 166.696 152.968 165.192 151.56C163.72 150.152 162.984 148.488 162.984 146.568ZM172.44 148.92C173.944 148.92 175.176 148.504 176.136 147.672C177.128 146.808 177.624 145.4 177.624 143.448V142.392L172.296 143.208C170.344 143.496 169.368 144.488 169.368 146.184C169.368 146.952 169.64 147.608 170.184 148.152C170.728 148.664 171.48 148.92 172.44 148.92ZM212.149 129.384L202.981 153H196.597L186.949 129.384H193.957L199.813 145.224L205.429 129.384H212.149ZM219.986 138.504H230.546C230.482 137.192 230.002 136.088 229.106 135.192C228.242 134.296 226.962 133.848 225.266 133.848C223.73 133.848 222.482 134.328 221.522 135.288C220.562 136.248 220.05 137.32 219.986 138.504ZM231.17 144.648L236.498 146.232C235.858 148.408 234.594 150.2 232.706 151.608C230.85 153.016 228.53 153.72 225.746 153.72C222.354 153.72 219.474 152.584 217.106 150.312C214.738 148.008 213.554 144.936 213.554 141.096C213.554 137.448 214.706 134.472 217.01 132.168C219.314 129.832 222.034 128.664 225.17 128.664C228.818 128.664 231.666 129.752 233.714 131.928C235.794 134.104 236.834 137.096 236.834 140.904C236.834 141.16 236.818 141.448 236.786 141.768C236.786 142.088 236.786 142.344 236.786 142.536L236.738 142.872H219.842C219.906 144.408 220.514 145.688 221.666 146.712C222.818 147.736 224.194 148.248 225.794 148.248C228.514 148.248 230.306 147.048 231.17 144.648ZM270.469 153H263.797V138.888H248.965V153H242.341V118.968H248.965V132.648H263.797V118.968H270.469V153ZM293.223 153C293.095 152.36 293.031 151.512 293.031 150.456C292.423 151.512 291.511 152.312 290.295 152.856C289.111 153.368 287.847 153.624 286.503 153.624C283.719 153.624 281.527 152.744 279.927 150.984C278.327 149.192 277.527 146.968 277.527 144.312V129.384H283.911V143.016C283.911 144.424 284.279 145.576 285.015 146.472C285.751 147.336 286.823 147.768 288.231 147.768C289.607 147.768 290.695 147.352 291.495 146.52C292.295 145.656 292.695 144.52 292.695 143.112V129.384H299.079V148.728C299.079 150.232 299.159 151.656 299.319 153H293.223ZM312.276 139.416V153H305.892V129.384H312.084V132.312C312.756 131.16 313.716 130.28 314.964 129.672C316.212 129.064 317.524 128.76 318.9 128.76C321.684 128.76 323.796 129.64 325.236 131.4C326.708 133.128 327.444 135.368 327.444 138.12V153H321.06V139.224C321.06 137.816 320.692 136.68 319.956 135.816C319.252 134.952 318.164 134.52 316.692 134.52C315.348 134.52 314.276 134.984 313.476 135.912C312.676 136.84 312.276 138.008 312.276 139.416ZM341.796 122.328V129.384H346.548V135.048H341.796V144.936C341.796 145.928 342.02 146.632 342.468 147.048C342.916 147.464 343.62 147.672 344.58 147.672C345.444 147.672 346.1 147.608 346.548 147.48V152.76C345.62 153.144 344.42 153.336 342.948 153.336C340.644 153.336 338.82 152.696 337.476 151.416C336.132 150.104 335.46 148.312 335.46 146.04V135.048H331.188V129.384H332.388C333.572 129.384 334.468 129.048 335.076 128.376C335.716 127.672 336.036 126.76 336.036 125.64V122.328H341.796ZM370.073 153H363.689V129.384H370.073V153ZM362.921 121.656C362.921 120.568 363.305 119.64 364.073 118.872C364.841 118.072 365.769 117.672 366.857 117.672C367.945 117.672 368.873 118.056 369.641 118.824C370.409 119.592 370.793 120.536 370.793 121.656C370.793 122.712 370.409 123.624 369.641 124.392C368.873 125.16 367.945 125.544 366.857 125.544C365.769 125.544 364.841 125.16 364.073 124.392C363.305 123.624 362.921 122.712 362.921 121.656ZM374.892 146.424L380.364 145.224C380.428 146.248 380.828 147.112 381.564 147.816C382.332 148.488 383.372 148.824 384.684 148.824C385.676 148.824 386.444 148.6 386.988 148.152C387.532 147.704 387.804 147.144 387.804 146.472C387.804 145.288 386.956 144.52 385.26 144.168L382.14 143.448C379.932 142.968 378.268 142.104 377.148 140.856C376.06 139.608 375.516 138.12 375.516 136.392C375.516 134.248 376.348 132.424 378.012 130.92C379.708 129.416 381.82 128.664 384.348 128.664C385.948 128.664 387.356 128.904 388.572 129.384C389.788 129.832 390.732 130.424 391.404 131.16C392.076 131.864 392.588 132.584 392.94 133.32C393.292 134.056 393.516 134.776 393.612 135.48L388.284 136.68C388.156 135.848 387.772 135.112 387.132 134.472C386.524 133.832 385.612 133.512 384.396 133.512C383.564 133.512 382.844 133.736 382.236 134.184C381.66 134.632 381.372 135.192 381.372 135.864C381.372 137.016 382.092 137.72 383.532 137.976L386.892 138.696C389.164 139.176 390.892 140.056 392.076 141.336C393.292 142.616 393.9 144.152 393.9 145.944C393.9 148.056 393.1 149.88 391.5 151.416C389.9 152.952 387.644 153.72 384.732 153.72C383.068 153.72 381.58 153.48 380.268 153C378.956 152.488 377.932 151.848 377.196 151.08C376.492 150.28 375.948 149.496 375.564 148.728C375.212 147.928 374.988 147.16 374.892 146.424ZM95.064 191.504H105.624C105.56 190.192 105.08 189.088 104.184 188.192C103.32 187.296 102.04 186.848 100.344 186.848C98.808 186.848 97.56 187.328 96.6 188.288C95.64 189.248 95.128 190.32 95.064 191.504ZM106.248 197.648L111.576 199.232C110.936 201.408 109.672 203.2 107.784 204.608C105.928 206.016 103.608 206.72 100.824 206.72C97.432 206.72 94.552 205.584 92.184 203.312C89.816 201.008 88.632 197.936 88.632 194.096C88.632 190.448 89.784 187.472 92.088 185.168C94.392 182.832 97.112 181.664 100.248 181.664C103.896 181.664 106.744 182.752 108.792 184.928C110.872 187.104 111.912 190.096 111.912 193.904C111.912 194.16 111.896 194.448 111.864 194.768C111.864 195.088 111.864 195.344 111.864 195.536L111.816 195.872H94.92C94.984 197.408 95.592 198.688 96.744 199.712C97.896 200.736 99.272 201.248 100.872 201.248C103.592 201.248 105.384 200.048 106.248 197.648ZM115.499 199.568C115.499 197.552 116.155 195.936 117.467 194.72C118.779 193.504 120.475 192.736 122.555 192.416L128.363 191.552C129.547 191.392 130.139 190.832 130.139 189.872C130.139 188.976 129.787 188.24 129.083 187.664C128.411 187.088 127.435 186.8 126.155 186.8C124.811 186.8 123.739 187.168 122.939 187.904C122.171 188.64 121.739 189.552 121.643 190.64L115.979 189.44C116.203 187.392 117.211 185.584 119.003 184.016C120.795 182.448 123.163 181.664 126.107 181.664C129.627 181.664 132.219 182.512 133.883 184.208C135.547 185.872 136.379 188.016 136.379 190.64V202.256C136.379 203.664 136.475 204.912 136.667 206H130.811C130.651 205.296 130.571 204.352 130.571 203.168C129.067 205.504 126.747 206.672 123.611 206.672C121.179 206.672 119.211 205.968 117.707 204.56C116.235 203.152 115.499 201.488 115.499 199.568ZM124.955 201.92C126.459 201.92 127.691 201.504 128.651 200.672C129.643 199.808 130.139 198.4 130.139 196.448V195.392L124.811 196.208C122.859 196.496 121.883 197.488 121.883 199.184C121.883 199.952 122.155 200.608 122.699 201.152C123.243 201.664 123.995 201.92 124.955 201.92ZM140.798 199.424L146.27 198.224C146.334 199.248 146.734 200.112 147.47 200.816C148.238 201.488 149.278 201.824 150.59 201.824C151.582 201.824 152.35 201.6 152.894 201.152C153.438 200.704 153.71 200.144 153.71 199.472C153.71 198.288 152.862 197.52 151.166 197.168L148.046 196.448C145.838 195.968 144.174 195.104 143.054 193.856C141.966 192.608 141.422 191.12 141.422 189.392C141.422 187.248 142.254 185.424 143.918 183.92C145.614 182.416 147.726 181.664 150.254 181.664C151.854 181.664 153.262 181.904 154.478 182.384C155.694 182.832 156.638 183.424 157.31 184.16C157.982 184.864 158.494 185.584 158.846 186.32C159.198 187.056 159.422 187.776 159.518 188.48L154.19 189.68C154.062 188.848 153.678 188.112 153.038 187.472C152.43 186.832 151.518 186.512 150.302 186.512C149.47 186.512 148.75 186.736 148.142 187.184C147.566 187.632 147.278 188.192 147.278 188.864C147.278 190.016 147.998 190.72 149.438 190.976L152.798 191.696C155.07 192.176 156.798 193.056 157.982 194.336C159.198 195.616 159.806 197.152 159.806 198.944C159.806 201.056 159.006 202.88 157.406 204.416C155.806 205.952 153.55 206.72 150.638 206.72C148.974 206.72 147.486 206.48 146.174 206C144.862 205.488 143.838 204.848 143.102 204.08C142.398 203.28 141.854 202.496 141.47 201.728C141.118 200.928 140.894 200.16 140.798 199.424ZM172.724 215.312H165.956L171.524 203.024L161.492 182.384H168.644L174.932 196.208L180.74 182.384H187.556L172.724 215.312ZM211.155 175.328V182.384H215.907V188.048H211.155V197.936C211.155 198.928 211.379 199.632 211.827 200.048C212.275 200.464 212.979 200.672 213.939 200.672C214.803 200.672 215.459 200.608 215.907 200.48V205.76C214.979 206.144 213.779 206.336 212.307 206.336C210.003 206.336 208.179 205.696 206.835 204.416C205.491 203.104 204.819 201.312 204.819 199.04V188.048H200.547V182.384H201.747C202.931 182.384 203.827 182.048 204.435 181.376C205.075 180.672 205.395 179.76 205.395 178.64V175.328H211.155ZM227.432 199.136C228.616 200.32 230.04 200.912 231.704 200.912C233.368 200.912 234.776 200.32 235.928 199.136C237.112 197.952 237.704 196.304 237.704 194.192C237.704 192.08 237.112 190.432 235.928 189.248C234.776 188.064 233.368 187.472 231.704 187.472C230.04 187.472 228.616 188.064 227.432 189.248C226.28 190.432 225.704 192.08 225.704 194.192C225.704 196.304 226.28 197.952 227.432 199.136ZM222.824 185.216C225.192 182.848 228.152 181.664 231.704 181.664C235.256 181.664 238.2 182.848 240.536 185.216C242.904 187.584 244.088 190.576 244.088 194.192C244.088 197.808 242.904 200.8 240.536 203.168C238.2 205.536 235.256 206.72 231.704 206.72C228.152 206.72 225.192 205.536 222.824 203.168C220.488 200.8 219.32 197.808 219.32 194.192C219.32 190.576 220.488 187.584 222.824 185.216ZM258.97 199.424L264.442 198.224C264.506 199.248 264.906 200.112 265.642 200.816C266.41 201.488 267.45 201.824 268.762 201.824C269.754 201.824 270.522 201.6 271.066 201.152C271.61 200.704 271.882 200.144 271.882 199.472C271.882 198.288 271.034 197.52 269.338 197.168L266.218 196.448C264.01 195.968 262.346 195.104 261.226 193.856C260.138 192.608 259.594 191.12 259.594 189.392C259.594 187.248 260.426 185.424 262.09 183.92C263.786 182.416 265.898 181.664 268.426 181.664C270.026 181.664 271.434 181.904 272.65 182.384C273.866 182.832 274.81 183.424 275.482 184.16C276.154 184.864 276.666 185.584 277.018 186.32C277.37 187.056 277.594 187.776 277.69 188.48L272.362 189.68C272.234 188.848 271.85 188.112 271.21 187.472C270.602 186.832 269.69 186.512 268.474 186.512C267.642 186.512 266.922 186.736 266.314 187.184C265.738 187.632 265.45 188.192 265.45 188.864C265.45 190.016 266.17 190.72 267.61 190.976L270.97 191.696C273.242 192.176 274.97 193.056 276.154 194.336C277.37 195.616 277.978 197.152 277.978 198.944C277.978 201.056 277.178 202.88 275.578 204.416C273.978 205.952 271.722 206.72 268.81 206.72C267.146 206.72 265.658 206.48 264.346 206C263.034 205.488 262.01 204.848 261.274 204.08C260.57 203.28 260.026 202.496 259.642 201.728C259.29 200.928 259.066 200.16 258.97 199.424ZM287.673 191.504H298.233C298.169 190.192 297.689 189.088 296.793 188.192C295.929 187.296 294.649 186.848 292.953 186.848C291.417 186.848 290.169 187.328 289.209 188.288C288.249 189.248 287.737 190.32 287.673 191.504ZM298.857 197.648L304.185 199.232C303.545 201.408 302.281 203.2 300.393 204.608C298.537 206.016 296.217 206.72 293.433 206.72C290.041 206.72 287.161 205.584 284.793 203.312C282.425 201.008 281.241 197.936 281.241 194.096C281.241 190.448 282.393 187.472 284.697 185.168C287.001 182.832 289.721 181.664 292.857 181.664C296.505 181.664 299.353 182.752 301.401 184.928C303.481 187.104 304.521 190.096 304.521 193.904C304.521 194.16 304.505 194.448 304.473 194.768C304.473 195.088 304.473 195.344 304.473 195.536L304.425 195.872H287.529C287.593 197.408 288.201 198.688 289.353 199.712C290.505 200.736 291.881 201.248 293.481 201.248C296.201 201.248 297.993 200.048 298.857 197.648ZM317.421 175.328V182.384H322.173V188.048H317.421V197.936C317.421 198.928 317.645 199.632 318.093 200.048C318.541 200.464 319.245 200.672 320.205 200.672C321.069 200.672 321.725 200.608 322.173 200.48V205.76C321.245 206.144 320.045 206.336 318.573 206.336C316.269 206.336 314.445 205.696 313.101 204.416C311.757 203.104 311.085 201.312 311.085 199.04V188.048H306.813V182.384H308.013C309.197 182.384 310.093 182.048 310.701 181.376C311.341 180.672 311.661 179.76 311.661 178.64V175.328H317.421ZM354.77 206C354.642 205.36 354.578 204.512 354.578 203.456C353.97 204.512 353.058 205.312 351.842 205.856C350.658 206.368 349.394 206.624 348.05 206.624C345.266 206.624 343.074 205.744 341.474 203.984C339.874 202.192 339.074 199.968 339.074 197.312V182.384H345.458V196.016C345.458 197.424 345.826 198.576 346.562 199.472C347.298 200.336 348.37 200.768 349.778 200.768C351.154 200.768 352.242 200.352 353.042 199.52C353.842 198.656 354.242 197.52 354.242 196.112V182.384H360.626V201.728C360.626 203.232 360.706 204.656 360.866 206H354.77ZM373.823 215.12H367.439V182.384H373.631V185.264C374.207 184.304 375.135 183.504 376.415 182.864C377.695 182.192 379.183 181.856 380.879 181.856C384.239 181.856 386.895 183.008 388.847 185.312C390.799 187.584 391.775 190.528 391.775 194.144C391.775 197.76 390.735 200.736 388.655 203.072C386.607 205.408 383.935 206.576 380.639 206.576C377.503 206.576 375.231 205.616 373.823 203.696V215.12ZM383.807 199.088C384.927 197.872 385.487 196.24 385.487 194.192C385.487 192.144 384.927 190.528 383.807 189.344C382.719 188.16 381.327 187.568 379.631 187.568C377.935 187.568 376.527 188.176 375.407 189.392C374.287 190.576 373.727 192.176 373.727 194.192C373.727 196.208 374.287 197.824 375.407 199.04C376.527 200.256 377.935 200.864 379.631 200.864C381.327 200.864 382.719 200.272 383.807 199.088ZM404.715 171.968L403.179 195.632H398.523L396.987 171.968H404.715ZM398.187 205.28C397.451 204.544 397.083 203.648 397.083 202.592C397.083 201.536 397.451 200.64 398.187 199.904C398.923 199.136 399.803 198.752 400.827 198.752C401.883 198.752 402.779 199.136 403.515 199.904C404.283 200.64 404.667 201.536 404.667 202.592C404.667 203.648 404.283 204.544 403.515 205.28C402.779 206.016 401.883 206.384 400.827 206.384C399.803 206.384 398.923 206.016 398.187 205.28Z" fill="white"/>
<path d="M101.7 256.04L104.76 244.82H106.78L102.74 259H100.72L97.02 247.5L93.36 259H91.4L87.3 244.82H89.32L92.44 255.92L96 244.82H98.06L101.7 256.04ZM109.195 253.2H114.455C114.428 252.48 114.188 251.893 113.735 251.44C113.282 250.973 112.642 250.74 111.815 250.74C111.068 250.74 110.455 250.987 109.975 251.48C109.495 251.96 109.235 252.533 109.195 253.2ZM114.735 255.7L116.355 256.26C116.075 257.153 115.555 257.887 114.795 258.46C114.035 259.02 113.115 259.3 112.035 259.3C110.688 259.3 109.542 258.84 108.595 257.92C107.662 256.987 107.195 255.733 107.195 254.16C107.195 252.693 107.648 251.48 108.555 250.52C109.462 249.56 110.542 249.08 111.795 249.08C113.248 249.08 114.382 249.54 115.195 250.46C116.008 251.367 116.415 252.587 116.415 254.12C116.415 254.36 116.402 254.56 116.375 254.72H109.135C109.148 255.573 109.428 256.273 109.975 256.82C110.535 257.367 111.222 257.64 112.035 257.64C113.408 257.64 114.308 256.993 114.735 255.7ZM118.215 256.42C118.215 255.593 118.482 254.933 119.015 254.44C119.548 253.933 120.255 253.62 121.135 253.5L123.735 253.12C124.228 253.053 124.475 252.813 124.475 252.4C124.475 251.893 124.302 251.48 123.955 251.16C123.608 250.84 123.088 250.68 122.395 250.68C121.755 250.68 121.248 250.86 120.875 251.22C120.502 251.567 120.282 252.033 120.215 252.62L118.415 252.2C118.508 251.28 118.928 250.533 119.675 249.96C120.422 249.373 121.315 249.08 122.355 249.08C123.715 249.08 124.722 249.413 125.375 250.08C126.028 250.733 126.355 251.573 126.355 252.6V257.42C126.355 257.993 126.395 258.52 126.475 259H124.635C124.568 258.6 124.535 258.167 124.535 257.7C124.268 258.127 123.875 258.5 123.355 258.82C122.848 259.14 122.208 259.3 121.435 259.3C120.488 259.3 119.715 259.02 119.115 258.46C118.515 257.887 118.215 257.207 118.215 256.42ZM121.695 257.72C122.535 257.72 123.208 257.493 123.715 257.04C124.222 256.587 124.475 255.867 124.475 254.88V254.44L121.535 254.88C121.108 254.947 120.768 255.1 120.515 255.34C120.262 255.58 120.135 255.907 120.135 256.32C120.135 256.693 120.275 257.02 120.555 257.3C120.848 257.58 121.228 257.72 121.695 257.72ZM137.524 249.38L133.684 259H131.784L127.884 249.38H130.004L132.744 256.8L135.504 249.38H137.524ZM140.25 253.2H145.51C145.483 252.48 145.243 251.893 144.79 251.44C144.336 250.973 143.696 250.74 142.87 250.74C142.123 250.74 141.51 250.987 141.03 251.48C140.55 251.96 140.29 252.533 140.25 253.2ZM145.79 255.7L147.41 256.26C147.13 257.153 146.61 257.887 145.85 258.46C145.09 259.02 144.17 259.3 143.09 259.3C141.743 259.3 140.596 258.84 139.65 257.92C138.716 256.987 138.25 255.733 138.25 254.16C138.25 252.693 138.703 251.48 139.61 250.52C140.516 249.56 141.596 249.08 142.85 249.08C144.303 249.08 145.436 249.54 146.25 250.46C147.063 251.367 147.47 252.587 147.47 254.12C147.47 254.36 147.456 254.56 147.43 254.72H140.19C140.203 255.573 140.483 256.273 141.03 256.82C141.59 257.367 142.276 257.64 143.09 257.64C144.463 257.64 145.363 256.993 145.79 255.7ZM156.73 259H154.87V249.38H156.73V259ZM154.83 246.7C154.576 246.433 154.45 246.113 154.45 245.74C154.45 245.367 154.576 245.047 154.83 244.78C155.096 244.513 155.416 244.38 155.79 244.38C156.163 244.38 156.483 244.513 156.75 244.78C157.016 245.033 157.15 245.353 157.15 245.74C157.15 246.113 157.016 246.433 156.75 246.7C156.483 246.953 156.163 247.08 155.79 247.08C155.416 247.08 155.096 246.953 154.83 246.7ZM159.028 256.5L160.728 255.9C160.795 256.42 161.021 256.853 161.408 257.2C161.795 257.533 162.315 257.7 162.968 257.7C163.475 257.7 163.875 257.58 164.168 257.34C164.461 257.087 164.608 256.78 164.608 256.42C164.608 255.78 164.195 255.367 163.368 255.18L161.728 254.82C160.981 254.66 160.395 254.34 159.968 253.86C159.541 253.38 159.328 252.8 159.328 252.12C159.328 251.293 159.661 250.58 160.328 249.98C161.008 249.38 161.815 249.08 162.748 249.08C163.361 249.08 163.908 249.173 164.388 249.36C164.868 249.533 165.241 249.767 165.508 250.06C165.775 250.353 165.975 250.627 166.108 250.88C166.241 251.133 166.341 251.393 166.408 251.66L164.748 252.28C164.721 252.12 164.675 251.967 164.608 251.82C164.541 251.66 164.435 251.487 164.288 251.3C164.155 251.113 163.955 250.967 163.688 250.86C163.421 250.74 163.108 250.68 162.748 250.68C162.281 250.68 161.895 250.807 161.588 251.06C161.295 251.313 161.148 251.613 161.148 251.96C161.148 252.573 161.515 252.96 162.248 253.12L163.808 253.46C164.661 253.647 165.315 253.993 165.768 254.5C166.235 254.993 166.468 255.6 166.468 256.32C166.468 257.08 166.155 257.767 165.528 258.38C164.915 258.993 164.055 259.3 162.948 259.3C161.761 259.3 160.835 259.007 160.168 258.42C159.501 257.82 159.121 257.18 159.028 256.5ZM173.071 256.5L174.771 255.9C174.838 256.42 175.064 256.853 175.451 257.2C175.838 257.533 176.358 257.7 177.011 257.7C177.518 257.7 177.918 257.58 178.211 257.34C178.504 257.087 178.651 256.78 178.651 256.42C178.651 255.78 178.238 255.367 177.411 255.18L175.771 254.82C175.024 254.66 174.438 254.34 174.011 253.86C173.584 253.38 173.371 252.8 173.371 252.12C173.371 251.293 173.704 250.58 174.371 249.98C175.051 249.38 175.858 249.08 176.791 249.08C177.404 249.08 177.951 249.173 178.431 249.36C178.911 249.533 179.284 249.767 179.551 250.06C179.818 250.353 180.018 250.627 180.151 250.88C180.284 251.133 180.384 251.393 180.451 251.66L178.791 252.28C178.764 252.12 178.718 251.967 178.651 251.82C178.584 251.66 178.478 251.487 178.331 251.3C178.198 251.113 177.998 250.967 177.731 250.86C177.464 250.74 177.151 250.68 176.791 250.68C176.324 250.68 175.938 250.807 175.631 251.06C175.338 251.313 175.191 251.613 175.191 251.96C175.191 252.573 175.558 252.96 176.291 253.12L177.851 253.46C178.704 253.647 179.358 253.993 179.811 254.5C180.278 254.993 180.511 255.6 180.511 256.32C180.511 257.08 180.198 257.767 179.571 258.38C178.958 258.993 178.098 259.3 176.991 259.3C175.804 259.3 174.878 259.007 174.211 258.42C173.544 257.82 173.164 257.18 173.071 256.5ZM184.874 259H183.014V249.38H184.874V259ZM182.974 246.7C182.721 246.433 182.594 246.113 182.594 245.74C182.594 245.367 182.721 245.047 182.974 244.78C183.241 244.513 183.561 244.38 183.934 244.38C184.307 244.38 184.627 244.513 184.894 244.78C185.161 245.033 185.294 245.353 185.294 245.74C185.294 246.113 185.161 246.433 184.894 246.7C184.627 246.953 184.307 247.08 183.934 247.08C183.561 247.08 183.241 246.953 182.974 246.7ZM189.933 259H188.073V249.38H189.873V250.66C190.166 250.153 190.579 249.767 191.113 249.5C191.646 249.233 192.206 249.1 192.793 249.1C193.419 249.1 193.993 249.253 194.513 249.56C195.033 249.867 195.419 250.32 195.673 250.92C196.339 249.707 197.413 249.1 198.893 249.1C199.813 249.1 200.593 249.413 201.233 250.04C201.886 250.667 202.213 251.573 202.213 252.76V259H200.353V252.96C200.353 252.293 200.179 251.76 199.833 251.36C199.499 250.96 198.993 250.76 198.313 250.76C197.659 250.76 197.126 250.993 196.713 251.46C196.299 251.913 196.093 252.487 196.093 253.18V259H194.213V252.96C194.213 252.293 194.039 251.76 193.693 251.36C193.359 250.96 192.853 250.76 192.173 250.76C191.506 250.76 190.966 250.987 190.553 251.44C190.139 251.893 189.933 252.48 189.933 253.2V259ZM207.081 262.8H205.221V249.38H207.041V250.88C207.321 250.373 207.741 249.96 208.301 249.64C208.861 249.32 209.514 249.16 210.261 249.16C211.648 249.16 212.728 249.633 213.501 250.58C214.288 251.527 214.681 252.727 214.681 254.18C214.681 255.647 214.274 256.86 213.461 257.82C212.661 258.78 211.574 259.26 210.201 259.26C209.494 259.26 208.868 259.113 208.321 258.82C207.774 258.527 207.361 258.153 207.081 257.7V262.8ZM212.761 254.18C212.761 253.207 212.501 252.407 211.981 251.78C211.474 251.14 210.788 250.82 209.921 250.82C209.068 250.82 208.374 251.14 207.841 251.78C207.321 252.407 207.061 253.207 207.061 254.18C207.061 255.18 207.321 256 207.841 256.64C208.374 257.267 209.068 257.58 209.921 257.58C210.774 257.58 211.461 257.267 211.981 256.64C212.501 256 212.761 255.18 212.761 254.18ZM218.957 259H217.077V244.52H218.957V259ZM223.375 253.2H228.635C228.608 252.48 228.368 251.893 227.915 251.44C227.461 250.973 226.821 250.74 225.995 250.74C225.248 250.74 224.635 250.987 224.155 251.48C223.675 251.96 223.415 252.533 223.375 253.2ZM228.915 255.7L230.535 256.26C230.255 257.153 229.735 257.887 228.975 258.46C228.215 259.02 227.295 259.3 226.215 259.3C224.868 259.3 223.721 258.84 222.775 257.92C221.841 256.987 221.375 255.733 221.375 254.16C221.375 252.693 221.828 251.48 222.735 250.52C223.641 249.56 224.721 249.08 225.975 249.08C227.428 249.08 228.561 249.54 229.375 250.46C230.188 251.367 230.595 252.587 230.595 254.12C230.595 254.36 230.581 254.56 230.555 254.72H223.315C223.328 255.573 223.608 256.273 224.155 256.82C224.715 257.367 225.401 257.64 226.215 257.64C227.588 257.64 228.488 256.993 228.915 255.7ZM240.515 246.34V249.38H242.595V251.08H240.515V256.08C240.515 256.533 240.615 256.867 240.815 257.08C241.028 257.293 241.375 257.4 241.855 257.4C242.135 257.4 242.381 257.373 242.595 257.32V258.92C242.275 259.04 241.848 259.1 241.315 259.1C240.488 259.1 239.835 258.86 239.355 258.38C238.875 257.9 238.635 257.227 238.635 256.36V251.08H236.795V249.38H237.315C237.808 249.38 238.175 249.247 238.415 248.98C238.668 248.7 238.795 248.34 238.795 247.9V246.34H240.515ZM246.986 256.72C247.573 257.32 248.286 257.62 249.126 257.62C249.966 257.62 250.673 257.32 251.246 256.72C251.833 256.107 252.126 255.26 252.126 254.18C252.126 253.113 251.833 252.28 251.246 251.68C250.673 251.067 249.966 250.76 249.126 250.76C248.286 250.76 247.573 251.067 246.986 251.68C246.413 252.28 246.126 253.113 246.126 254.18C246.126 255.26 246.413 256.107 246.986 256.72ZM245.586 250.54C246.52 249.567 247.7 249.08 249.126 249.08C250.553 249.08 251.726 249.567 252.646 250.54C253.58 251.5 254.046 252.713 254.046 254.18C254.046 255.66 253.586 256.887 252.666 257.86C251.746 258.82 250.566 259.3 249.126 259.3C247.686 259.3 246.506 258.82 245.586 257.86C244.666 256.887 244.206 255.66 244.206 254.18C244.206 252.713 244.666 251.5 245.586 250.54ZM260.552 256.5L262.252 255.9C262.318 256.42 262.545 256.853 262.932 257.2C263.318 257.533 263.838 257.7 264.492 257.7C264.998 257.7 265.398 257.58 265.692 257.34C265.985 257.087 266.132 256.78 266.132 256.42C266.132 255.78 265.718 255.367 264.892 255.18L263.252 254.82C262.505 254.66 261.918 254.34 261.492 253.86C261.065 253.38 260.852 252.8 260.852 252.12C260.852 251.293 261.185 250.58 261.852 249.98C262.532 249.38 263.338 249.08 264.272 249.08C264.885 249.08 265.432 249.173 265.912 249.36C266.392 249.533 266.765 249.767 267.032 250.06C267.298 250.353 267.498 250.627 267.632 250.88C267.765 251.133 267.865 251.393 267.932 251.66L266.272 252.28C266.245 252.12 266.198 251.967 266.132 251.82C266.065 251.66 265.958 251.487 265.812 251.3C265.678 251.113 265.478 250.967 265.212 250.86C264.945 250.74 264.632 250.68 264.272 250.68C263.805 250.68 263.418 250.807 263.112 251.06C262.818 251.313 262.672 251.613 262.672 251.96C262.672 252.573 263.038 252.96 263.772 253.12L265.332 253.46C266.185 253.647 266.838 253.993 267.292 254.5C267.758 254.993 267.992 255.6 267.992 256.32C267.992 257.08 267.678 257.767 267.052 258.38C266.438 258.993 265.578 259.3 264.472 259.3C263.285 259.3 262.358 259.007 261.692 258.42C261.025 257.82 260.645 257.18 260.552 256.5ZM271.617 253.2H276.877C276.85 252.48 276.61 251.893 276.157 251.44C275.704 250.973 275.064 250.74 274.237 250.74C273.49 250.74 272.877 250.987 272.397 251.48C271.917 251.96 271.657 252.533 271.617 253.2ZM277.157 255.7L278.777 256.26C278.497 257.153 277.977 257.887 277.217 258.46C276.457 259.02 275.537 259.3 274.457 259.3C273.11 259.3 271.964 258.84 271.017 257.92C270.084 256.987 269.617 255.733 269.617 254.16C269.617 252.693 270.07 251.48 270.977 250.52C271.884 249.56 272.964 249.08 274.217 249.08C275.67 249.08 276.804 249.54 277.617 250.46C278.43 251.367 278.837 252.587 278.837 254.12C278.837 254.36 278.824 254.56 278.797 254.72H271.557C271.57 255.573 271.85 256.273 272.397 256.82C272.957 257.367 273.644 257.64 274.457 257.64C275.83 257.64 276.73 256.993 277.157 255.7ZM283.757 246.34V249.38H285.837V251.08H283.757V256.08C283.757 256.533 283.857 256.867 284.057 257.08C284.27 257.293 284.617 257.4 285.097 257.4C285.377 257.4 285.623 257.373 285.837 257.32V258.92C285.517 259.04 285.09 259.1 284.557 259.1C283.73 259.1 283.077 258.86 282.597 258.38C282.117 257.9 281.877 257.227 281.877 256.36V251.08H280.037V249.38H280.557C281.05 249.38 281.417 249.247 281.657 248.98C281.91 248.7 282.037 248.34 282.037 247.9V246.34H283.757ZM299.686 257.84C299.433 258.32 299.046 258.687 298.526 258.94C298.006 259.18 297.446 259.3 296.846 259.3C295.753 259.3 294.879 258.94 294.226 258.22C293.573 257.487 293.246 256.56 293.246 255.44V249.38H295.126V255.16C295.126 255.88 295.299 256.473 295.646 256.94C296.006 257.407 296.559 257.64 297.306 257.64C298.053 257.64 298.619 257.42 299.006 256.98C299.393 256.527 299.586 255.927 299.586 255.18V249.38H301.466V257.22C301.466 257.847 301.499 258.44 301.566 259H299.766C299.713 258.707 299.686 258.32 299.686 257.84ZM306.534 262.8H304.674V249.38H306.494V250.88C306.774 250.373 307.194 249.96 307.754 249.64C308.314 249.32 308.968 249.16 309.714 249.16C311.101 249.16 312.181 249.633 312.954 250.58C313.741 251.527 314.134 252.727 314.134 254.18C314.134 255.647 313.728 256.86 312.914 257.82C312.114 258.78 311.028 259.26 309.654 259.26C308.948 259.26 308.321 259.113 307.774 258.82C307.228 258.527 306.814 258.153 306.534 257.7V262.8ZM312.214 254.18C312.214 253.207 311.954 252.407 311.434 251.78C310.928 251.14 310.241 250.82 309.374 250.82C308.521 250.82 307.828 251.14 307.294 251.78C306.774 252.407 306.514 253.207 306.514 254.18C306.514 255.18 306.774 256 307.294 256.64C307.828 257.267 308.521 257.58 309.374 257.58C310.228 257.58 310.914 257.267 311.434 256.64C311.954 256 312.214 255.18 312.214 254.18ZM316.437 258.7C316.17 258.433 316.037 258.107 316.037 257.72C316.037 257.333 316.17 257.007 316.437 256.74C316.703 256.46 317.03 256.32 317.417 256.32C317.803 256.32 318.13 256.46 318.397 256.74C318.677 257.007 318.817 257.333 318.817 257.72C318.817 258.107 318.677 258.433 318.397 258.7C318.13 258.967 317.803 259.1 317.417 259.1C317.03 259.1 316.703 258.967 316.437 258.7ZM325.623 254.78V253.86L327.583 253.42V254.76C327.583 255.667 327.803 256.347 328.243 256.8C328.683 257.253 329.276 257.48 330.023 257.48C330.743 257.48 331.309 257.253 331.723 256.8C332.136 256.347 332.343 255.713 332.343 254.9V244.82H334.303V254.76C334.303 256.04 333.909 257.12 333.123 258C332.349 258.867 331.323 259.3 330.043 259.3C328.669 259.3 327.589 258.893 326.803 258.08C326.016 257.253 325.623 256.153 325.623 254.78ZM343.846 257.84C343.593 258.32 343.206 258.687 342.686 258.94C342.166 259.18 341.606 259.3 341.006 259.3C339.913 259.3 339.04 258.94 338.386 258.22C337.733 257.487 337.406 256.56 337.406 255.44V249.38H339.286V255.16C339.286 255.88 339.46 256.473 339.806 256.94C340.166 257.407 340.72 257.64 341.466 257.64C342.213 257.64 342.78 257.42 343.166 256.98C343.553 256.527 343.746 255.927 343.746 255.18V249.38H345.626V257.22C345.626 257.847 345.66 258.44 345.726 259H343.926C343.873 258.707 343.846 258.32 343.846 257.84ZM347.934 256.5L349.634 255.9C349.701 256.42 349.928 256.853 350.314 257.2C350.701 257.533 351.221 257.7 351.874 257.7C352.381 257.7 352.781 257.58 353.074 257.34C353.368 257.087 353.514 256.78 353.514 256.42C353.514 255.78 353.101 255.367 352.274 255.18L350.634 254.82C349.888 254.66 349.301 254.34 348.874 253.86C348.448 253.38 348.234 252.8 348.234 252.12C348.234 251.293 348.568 250.58 349.234 249.98C349.914 249.38 350.721 249.08 351.654 249.08C352.268 249.08 352.814 249.173 353.294 249.36C353.774 249.533 354.148 249.767 354.414 250.06C354.681 250.353 354.881 250.627 355.014 250.88C355.148 251.133 355.248 251.393 355.314 251.66L353.654 252.28C353.628 252.12 353.581 251.967 353.514 251.82C353.448 251.66 353.341 251.487 353.194 251.3C353.061 251.113 352.861 250.967 352.594 250.86C352.328 250.74 352.014 250.68 351.654 250.68C351.188 250.68 350.801 250.807 350.494 251.06C350.201 251.313 350.054 251.613 350.054 251.96C350.054 252.573 350.421 252.96 351.154 253.12L352.714 253.46C353.568 253.647 354.221 253.993 354.674 254.5C355.141 254.993 355.374 255.6 355.374 256.32C355.374 257.08 355.061 257.767 354.434 258.38C353.821 258.993 352.961 259.3 351.854 259.3C350.668 259.3 349.741 259.007 349.074 258.42C348.408 257.82 348.028 257.18 347.934 256.5ZM360.397 246.34V249.38H362.477V251.08H360.397V256.08C360.397 256.533 360.497 256.867 360.697 257.08C360.911 257.293 361.257 257.4 361.737 257.4C362.017 257.4 362.264 257.373 362.477 257.32V258.92C362.157 259.04 361.731 259.1 361.197 259.1C360.371 259.1 359.717 258.86 359.237 258.38C358.757 257.9 358.517 257.227 358.517 256.36V251.08H356.677V249.38H357.197C357.691 249.38 358.057 249.247 358.297 248.98C358.551 248.7 358.677 248.34 358.677 247.9V246.34H360.397ZM371.107 254.16C371.107 255.173 371.353 256 371.847 256.64C372.353 257.28 373.047 257.6 373.927 257.6C374.767 257.6 375.44 257.273 375.947 256.62C376.453 255.967 376.707 255.133 376.707 254.12C376.707 253.12 376.46 252.313 375.967 251.7C375.473 251.087 374.8 250.78 373.947 250.78C373.093 250.78 372.407 251.093 371.887 251.72C371.367 252.347 371.107 253.16 371.107 254.16ZM376.727 257.7V257.54C376.473 258.033 376.087 258.447 375.567 258.78C375.06 259.1 374.453 259.26 373.747 259.26C372.373 259.26 371.267 258.78 370.427 257.82C369.6 256.847 369.187 255.627 369.187 254.16C369.187 252.76 369.613 251.573 370.467 250.6C371.32 249.613 372.413 249.12 373.747 249.12C374.533 249.12 375.173 249.28 375.667 249.6C376.16 249.907 376.5 250.287 376.687 250.74V244.52H378.547V257.22C378.547 257.873 378.58 258.467 378.647 259H376.827C376.76 258.627 376.727 258.193 376.727 257.7ZM383.725 256.72C384.311 257.32 385.025 257.62 385.865 257.62C386.705 257.62 387.411 257.32 387.985 256.72C388.571 256.107 388.865 255.26 388.865 254.18C388.865 253.113 388.571 252.28 387.985 251.68C387.411 251.067 386.705 250.76 385.865 250.76C385.025 250.76 384.311 251.067 383.725 251.68C383.151 252.28 382.865 253.113 382.865 254.18C382.865 255.26 383.151 256.107 383.725 256.72ZM382.325 250.54C383.258 249.567 384.438 249.08 385.865 249.08C387.291 249.08 388.465 249.567 389.385 250.54C390.318 251.5 390.785 252.713 390.785 254.18C390.785 255.66 390.325 256.887 389.405 257.86C388.485 258.82 387.305 259.3 385.865 259.3C384.425 259.3 383.245 258.82 382.325 257.86C381.405 256.887 380.945 255.66 380.945 254.18C380.945 252.713 381.405 251.5 382.325 250.54ZM398.415 249.38H400.355L402.855 256.62L404.975 249.38H406.955L403.835 259H401.895L399.335 251.68L396.835 259H394.855L391.695 249.38H393.755L395.915 256.62L398.415 249.38ZM410.734 253.44V259H408.854V249.38H410.694V250.76C411.334 249.653 412.321 249.1 413.654 249.1C414.761 249.1 415.607 249.453 416.194 250.16C416.794 250.867 417.094 251.78 417.094 252.9V259H415.214V253.22C415.214 251.607 414.467 250.8 412.974 250.8C412.267 250.8 411.714 251.053 411.314 251.56C410.927 252.053 410.734 252.68 410.734 253.44ZM421.964 259H420.084V244.52H421.964V259ZM427.143 256.72C427.729 257.32 428.443 257.62 429.283 257.62C430.123 257.62 430.829 257.32 431.403 256.72C431.989 256.107 432.283 255.26 432.283 254.18C432.283 253.113 431.989 252.28 431.403 251.68C430.829 251.067 430.123 250.76 429.283 250.76C428.443 250.76 427.729 251.067 427.143 251.68C426.569 252.28 426.283 253.113 426.283 254.18C426.283 255.26 426.569 256.107 427.143 256.72ZM425.743 250.54C426.676 249.567 427.856 249.08 429.283 249.08C430.709 249.08 431.883 249.567 432.803 250.54C433.736 251.5 434.203 252.713 434.203 254.18C434.203 255.66 433.743 256.887 432.823 257.86C431.903 258.82 430.723 259.3 429.283 259.3C427.843 259.3 426.663 258.82 425.743 257.86C424.823 256.887 424.363 255.66 424.363 254.18C424.363 252.713 424.823 251.5 425.743 250.54ZM436.008 256.42C436.008 255.593 436.274 254.933 436.808 254.44C437.341 253.933 438.048 253.62 438.928 253.5L441.528 253.12C442.021 253.053 442.268 252.813 442.268 252.4C442.268 251.893 442.094 251.48 441.748 251.16C441.401 250.84 440.881 250.68 440.188 250.68C439.548 250.68 439.041 250.86 438.668 251.22C438.294 251.567 438.074 252.033 438.008 252.62L436.208 252.2C436.301 251.28 436.721 250.533 437.468 249.96C438.214 249.373 439.108 249.08 440.148 249.08C441.508 249.08 442.514 249.413 443.168 250.08C443.821 250.733 444.148 251.573 444.148 252.6V257.42C444.148 257.993 444.188 258.52 444.268 259H442.428C442.361 258.6 442.328 258.167 442.328 257.7C442.061 258.127 441.668 258.5 441.148 258.82C440.641 259.14 440.001 259.3 439.228 259.3C438.281 259.3 437.508 259.02 436.908 258.46C436.308 257.887 436.008 257.207 436.008 256.42ZM439.488 257.72C440.328 257.72 441.001 257.493 441.508 257.04C442.014 256.587 442.268 255.867 442.268 254.88V254.44L439.328 254.88C438.901 254.947 438.561 255.1 438.308 255.34C438.054 255.58 437.928 255.907 437.928 256.32C437.928 256.693 438.068 257.02 438.348 257.3C438.641 257.58 439.021 257.72 439.488 257.72ZM448.197 254.16C448.197 255.173 448.443 256 448.937 256.64C449.443 257.28 450.137 257.6 451.017 257.6C451.857 257.6 452.53 257.273 453.037 256.62C453.543 255.967 453.797 255.133 453.797 254.12C453.797 253.12 453.55 252.313 453.057 251.7C452.563 251.087 451.89 250.78 451.037 250.78C450.183 250.78 449.497 251.093 448.977 251.72C448.457 252.347 448.197 253.16 448.197 254.16ZM453.817 257.7V257.54C453.563 258.033 453.177 258.447 452.657 258.78C452.15 259.1 451.543 259.26 450.837 259.26C449.463 259.26 448.357 258.78 447.517 257.82C446.69 256.847 446.277 255.627 446.277 254.16C446.277 252.76 446.703 251.573 447.557 250.6C448.41 249.613 449.503 249.12 450.837 249.12C451.623 249.12 452.263 249.28 452.757 249.6C453.25 249.907 453.59 250.287 453.777 250.74V244.52H455.637V257.22C455.637 257.873 455.67 258.467 455.737 259H453.917C453.85 258.627 453.817 258.193 453.817 257.7ZM91.12 276.34V279.38H93.2V281.08H91.12V286.08C91.12 286.533 91.22 286.867 91.42 287.08C91.6333 287.293 91.98 287.4 92.46 287.4C92.74 287.4 92.9867 287.373 93.2 287.32V288.92C92.88 289.04 92.4533 289.1 91.92 289.1C91.0933 289.1 90.44 288.86 89.96 288.38C89.48 287.9 89.24 287.227 89.24 286.36V281.08H87.4V279.38H87.92C88.4133 279.38 88.78 279.247 89.02 278.98C89.2733 278.7 89.4 278.34 89.4 277.9V276.34H91.12ZM97.5894 283.34V289H95.7094V274.52H97.5894V280.5C98.2294 279.567 99.2027 279.1 100.509 279.1C101.616 279.1 102.463 279.453 103.049 280.16C103.649 280.867 103.949 281.78 103.949 282.9V289H102.069V283.22C102.069 281.607 101.323 280.8 99.8294 280.8C99.136 280.8 98.596 281.04 98.2094 281.52C97.8227 281.987 97.616 282.593 97.5894 283.34ZM108.16 283.2H113.42C113.393 282.48 113.153 281.893 112.7 281.44C112.247 280.973 111.607 280.74 110.78 280.74C110.033 280.74 109.42 280.987 108.94 281.48C108.46 281.96 108.2 282.533 108.16 283.2ZM113.7 285.7L115.32 286.26C115.04 287.153 114.52 287.887 113.76 288.46C113 289.02 112.08 289.3 111 289.3C109.653 289.3 108.507 288.84 107.56 287.92C106.627 286.987 106.16 285.733 106.16 284.16C106.16 282.693 106.613 281.48 107.52 280.52C108.427 279.56 109.507 279.08 110.76 279.08C112.213 279.08 113.347 279.54 114.16 280.46C114.973 281.367 115.38 282.587 115.38 284.12C115.38 284.36 115.367 284.56 115.34 284.72H108.1C108.113 285.573 108.393 286.273 108.94 286.82C109.5 287.367 110.187 287.64 111 287.64C112.373 287.64 113.273 286.993 113.7 285.7ZM122.18 286.42C122.18 285.593 122.446 284.933 122.98 284.44C123.513 283.933 124.22 283.62 125.1 283.5L127.7 283.12C128.193 283.053 128.44 282.813 128.44 282.4C128.44 281.893 128.266 281.48 127.92 281.16C127.573 280.84 127.053 280.68 126.36 280.68C125.72 280.68 125.213 280.86 124.84 281.22C124.466 281.567 124.246 282.033 124.18 282.62L122.38 282.2C122.473 281.28 122.893 280.533 123.64 279.96C124.386 279.373 125.28 279.08 126.32 279.08C127.68 279.08 128.686 279.413 129.34 280.08C129.993 280.733 130.32 281.573 130.32 282.6V287.42C130.32 287.993 130.36 288.52 130.44 289H128.6C128.533 288.6 128.5 288.167 128.5 287.7C128.233 288.127 127.84 288.5 127.32 288.82C126.813 289.14 126.173 289.3 125.4 289.3C124.453 289.3 123.68 289.02 123.08 288.46C122.48 287.887 122.18 287.207 122.18 286.42ZM125.66 287.72C126.5 287.72 127.173 287.493 127.68 287.04C128.186 286.587 128.44 285.867 128.44 284.88V284.44L125.5 284.88C125.073 284.947 124.733 285.1 124.48 285.34C124.226 285.58 124.1 285.907 124.1 286.32C124.1 286.693 124.24 287.02 124.52 287.3C124.813 287.58 125.193 287.72 125.66 287.72ZM135.108 292.8H133.248V279.38H135.068V280.88C135.348 280.373 135.768 279.96 136.328 279.64C136.888 279.32 137.542 279.16 138.288 279.16C139.675 279.16 140.755 279.633 141.528 280.58C142.315 281.527 142.708 282.727 142.708 284.18C142.708 285.647 142.302 286.86 141.488 287.82C140.688 288.78 139.602 289.26 138.228 289.26C137.522 289.26 136.895 289.113 136.348 288.82C135.802 288.527 135.388 288.153 135.108 287.7V292.8ZM140.788 284.18C140.788 283.207 140.528 282.407 140.008 281.78C139.502 281.14 138.815 280.82 137.948 280.82C137.095 280.82 136.402 281.14 135.868 281.78C135.348 282.407 135.088 283.207 135.088 284.18C135.088 285.18 135.348 286 135.868 286.64C136.402 287.267 137.095 287.58 137.948 287.58C138.802 287.58 139.488 287.267 140.008 286.64C140.528 286 140.788 285.18 140.788 284.18ZM146.964 292.8H145.104V279.38H146.924V280.88C147.204 280.373 147.624 279.96 148.184 279.64C148.744 279.32 149.397 279.16 150.144 279.16C151.531 279.16 152.611 279.633 153.384 280.58C154.171 281.527 154.564 282.727 154.564 284.18C154.564 285.647 154.157 286.86 153.344 287.82C152.544 288.78 151.457 289.26 150.084 289.26C149.377 289.26 148.751 289.113 148.204 288.82C147.657 288.527 147.244 288.153 146.964 287.7V292.8ZM152.644 284.18C152.644 283.207 152.384 282.407 151.864 281.78C151.357 281.14 150.671 280.82 149.804 280.82C148.951 280.82 148.257 281.14 147.724 281.78C147.204 282.407 146.944 283.207 146.944 284.18C146.944 285.18 147.204 286 147.724 286.64C148.257 287.267 148.951 287.58 149.804 287.58C150.657 287.58 151.344 287.267 151.864 286.64C152.384 286 152.644 285.18 152.644 284.18ZM161.359 286.42C161.359 285.593 161.626 284.933 162.159 284.44C162.693 283.933 163.399 283.62 164.279 283.5L166.879 283.12C167.373 283.053 167.619 282.813 167.619 282.4C167.619 281.893 167.446 281.48 167.099 281.16C166.753 280.84 166.233 280.68 165.539 280.68C164.899 280.68 164.393 280.86 164.019 281.22C163.646 281.567 163.426 282.033 163.359 282.62L161.559 282.2C161.653 281.28 162.073 280.533 162.819 279.96C163.566 279.373 164.459 279.08 165.499 279.08C166.859 279.08 167.866 279.413 168.519 280.08C169.173 280.733 169.499 281.573 169.499 282.6V287.42C169.499 287.993 169.539 288.52 169.619 289H167.779C167.713 288.6 167.679 288.167 167.679 287.7C167.413 288.127 167.019 288.5 166.499 288.82C165.993 289.14 165.353 289.3 164.579 289.3C163.633 289.3 162.859 289.02 162.259 288.46C161.659 287.887 161.359 287.207 161.359 286.42ZM164.839 287.72C165.679 287.72 166.353 287.493 166.859 287.04C167.366 286.587 167.619 285.867 167.619 284.88V284.44L164.679 284.88C164.253 284.947 163.913 285.1 163.659 285.34C163.406 285.58 163.279 285.907 163.279 286.32C163.279 286.693 163.419 287.02 163.699 287.3C163.993 287.58 164.373 287.72 164.839 287.72ZM174.308 283.44V289H172.428V279.38H174.268V280.76C174.908 279.653 175.895 279.1 177.228 279.1C178.335 279.1 179.181 279.453 179.768 280.16C180.368 280.867 180.668 281.78 180.668 282.9V289H178.788V283.22C178.788 281.607 178.041 280.8 176.548 280.8C175.841 280.8 175.288 281.053 174.888 281.56C174.501 282.053 174.308 282.68 174.308 283.44ZM184.779 284.16C184.779 285.173 185.025 286 185.519 286.64C186.025 287.28 186.719 287.6 187.599 287.6C188.439 287.6 189.112 287.273 189.619 286.62C190.125 285.967 190.379 285.133 190.379 284.12C190.379 283.12 190.132 282.313 189.639 281.7C189.145 281.087 188.472 280.78 187.619 280.78C186.765 280.78 186.079 281.093 185.559 281.72C185.039 282.347 184.779 283.16 184.779 284.16ZM190.399 287.7V287.54C190.145 288.033 189.759 288.447 189.239 288.78C188.732 289.1 188.125 289.26 187.419 289.26C186.045 289.26 184.939 288.78 184.099 287.82C183.272 286.847 182.859 285.627 182.859 284.16C182.859 282.76 183.285 281.573 184.139 280.6C184.992 279.613 186.085 279.12 187.419 279.12C188.205 279.12 188.845 279.28 189.339 279.6C189.832 279.907 190.172 280.287 190.359 280.74V274.52H192.219V287.22C192.219 287.873 192.252 288.467 192.319 289H190.499C190.432 288.627 190.399 288.193 190.399 287.7ZM202.816 293.02H200.756L203.156 287.94L199.016 279.38H201.176L204.176 286.02L207.056 279.38H209.076L202.816 293.02ZM212.475 286.72C213.061 287.32 213.775 287.62 214.615 287.62C215.455 287.62 216.161 287.32 216.735 286.72C217.321 286.107 217.615 285.26 217.615 284.18C217.615 283.113 217.321 282.28 216.735 281.68C216.161 281.067 215.455 280.76 214.615 280.76C213.775 280.76 213.061 281.067 212.475 281.68C211.901 282.28 211.615 283.113 211.615 284.18C211.615 285.26 211.901 286.107 212.475 286.72ZM211.075 280.54C212.008 279.567 213.188 279.08 214.615 279.08C216.041 279.08 217.215 279.567 218.135 280.54C219.068 281.5 219.535 282.713 219.535 284.18C219.535 285.66 219.075 286.887 218.155 287.86C217.235 288.82 216.055 289.3 214.615 289.3C213.175 289.3 211.995 288.82 211.075 287.86C210.155 286.887 209.695 285.66 209.695 284.18C209.695 282.713 210.155 281.5 211.075 280.54ZM228.182 287.84C227.929 288.32 227.542 288.687 227.022 288.94C226.502 289.18 225.942 289.3 225.342 289.3C224.249 289.3 223.376 288.94 222.722 288.22C222.069 287.487 221.742 286.56 221.742 285.44V279.38H223.622V285.16C223.622 285.88 223.796 286.473 224.142 286.94C224.502 287.407 225.056 287.64 225.802 287.64C226.549 287.64 227.116 287.42 227.502 286.98C227.889 286.527 228.082 285.927 228.082 285.18V279.38H229.962V287.22C229.962 287.847 229.996 288.44 230.062 289H228.262C228.209 288.707 228.182 288.32 228.182 287.84ZM232.37 275.88C232.37 275.547 232.497 275.26 232.75 275.02C233.017 274.767 233.344 274.64 233.73 274.64C234.157 274.64 234.517 274.793 234.81 275.1C235.104 275.407 235.25 275.84 235.25 276.4C235.25 277.52 234.964 278.387 234.39 279C233.83 279.613 233.197 279.96 232.49 280.04V279.08C232.93 278.987 233.29 278.747 233.57 278.36C233.864 277.96 234.017 277.527 234.03 277.06C233.937 277.127 233.804 277.16 233.63 277.16C233.27 277.16 232.97 277.047 232.73 276.82C232.49 276.58 232.37 276.267 232.37 275.88ZM242.182 279.28V281.28C241.902 281.24 241.629 281.22 241.362 281.22C239.602 281.22 238.722 282.207 238.722 284.18V289H236.842V279.38H238.682V281.06C239.269 279.833 240.229 279.22 241.562 279.22C241.776 279.22 241.982 279.24 242.182 279.28ZM245.308 283.2H250.568C250.542 282.48 250.302 281.893 249.848 281.44C249.395 280.973 248.755 280.74 247.928 280.74C247.182 280.74 246.568 280.987 246.088 281.48C245.608 281.96 245.348 282.533 245.308 283.2ZM250.848 285.7L252.468 286.26C252.188 287.153 251.668 287.887 250.908 288.46C250.148 289.02 249.228 289.3 248.148 289.3C246.802 289.3 245.655 288.84 244.708 287.92C243.775 286.987 243.308 285.733 243.308 284.16C243.308 282.693 243.762 281.48 244.668 280.52C245.575 279.56 246.655 279.08 247.908 279.08C249.362 279.08 250.495 279.54 251.308 280.46C252.122 281.367 252.528 282.587 252.528 284.12C252.528 284.36 252.515 284.56 252.488 284.72H245.248C245.262 285.573 245.542 286.273 246.088 286.82C246.648 287.367 247.335 287.64 248.148 287.64C249.522 287.64 250.422 286.993 250.848 285.7ZM265.268 279.28V281.28C264.988 281.24 264.715 281.22 264.448 281.22C262.688 281.22 261.808 282.207 261.808 284.18V289H259.928V279.38H261.768V281.06C262.355 279.833 263.315 279.22 264.648 279.22C264.861 279.22 265.068 279.24 265.268 279.28ZM268.394 283.2H273.654C273.628 282.48 273.388 281.893 272.934 281.44C272.481 280.973 271.841 280.74 271.014 280.74C270.268 280.74 269.654 280.987 269.174 281.48C268.694 281.96 268.434 282.533 268.394 283.2ZM273.934 285.7L275.554 286.26C275.274 287.153 274.754 287.887 273.994 288.46C273.234 289.02 272.314 289.3 271.234 289.3C269.888 289.3 268.741 288.84 267.794 287.92C266.861 286.987 266.394 285.733 266.394 284.16C266.394 282.693 266.848 281.48 267.754 280.52C268.661 279.56 269.741 279.08 270.994 279.08C272.448 279.08 273.581 279.54 274.394 280.46C275.208 281.367 275.614 282.587 275.614 284.12C275.614 284.36 275.601 284.56 275.574 284.72H268.334C268.348 285.573 268.628 286.273 269.174 286.82C269.734 287.367 270.421 287.64 271.234 287.64C272.608 287.64 273.508 286.993 273.934 285.7ZM277.414 286.42C277.414 285.593 277.681 284.933 278.214 284.44C278.747 283.933 279.454 283.62 280.334 283.5L282.934 283.12C283.427 283.053 283.674 282.813 283.674 282.4C283.674 281.893 283.501 281.48 283.154 281.16C282.807 280.84 282.287 280.68 281.594 280.68C280.954 280.68 280.447 280.86 280.074 281.22C279.701 281.567 279.481 282.033 279.414 282.62L277.614 282.2C277.707 281.28 278.127 280.533 278.874 279.96C279.621 279.373 280.514 279.08 281.554 279.08C282.914 279.08 283.921 279.413 284.574 280.08C285.227 280.733 285.554 281.573 285.554 282.6V287.42C285.554 287.993 285.594 288.52 285.674 289H283.834C283.767 288.6 283.734 288.167 283.734 287.7C283.467 288.127 283.074 288.5 282.554 288.82C282.047 289.14 281.407 289.3 280.634 289.3C279.687 289.3 278.914 289.02 278.314 288.46C277.714 287.887 277.414 287.207 277.414 286.42ZM280.894 287.72C281.734 287.72 282.407 287.493 282.914 287.04C283.421 286.587 283.674 285.867 283.674 284.88V284.44L280.734 284.88C280.307 284.947 279.967 285.1 279.714 285.34C279.461 285.58 279.334 285.907 279.334 286.32C279.334 286.693 279.474 287.02 279.754 287.3C280.047 287.58 280.427 287.72 280.894 287.72ZM289.603 284.16C289.603 285.173 289.849 286 290.343 286.64C290.849 287.28 291.543 287.6 292.423 287.6C293.263 287.6 293.936 287.273 294.443 286.62C294.949 285.967 295.203 285.133 295.203 284.12C295.203 283.12 294.956 282.313 294.463 281.7C293.969 281.087 293.296 280.78 292.443 280.78C291.589 280.78 290.903 281.093 290.383 281.72C289.863 282.347 289.603 283.16 289.603 284.16ZM295.223 287.7V287.54C294.969 288.033 294.583 288.447 294.063 288.78C293.556 289.1 292.949 289.26 292.243 289.26C290.869 289.26 289.763 288.78 288.923 287.82C288.096 286.847 287.683 285.627 287.683 284.16C287.683 282.76 288.109 281.573 288.963 280.6C289.816 279.613 290.909 279.12 292.243 279.12C293.029 279.12 293.669 279.28 294.163 279.6C294.656 279.907 294.996 280.287 295.183 280.74V274.52H297.043V287.22C297.043 287.873 297.076 288.467 297.143 289H295.323C295.256 288.627 295.223 288.193 295.223 287.7ZM302.641 293.02H300.581L302.981 287.94L298.841 279.38H301.001L304.001 286.02L306.881 279.38H308.901L302.641 293.02ZM318.229 276.34V279.38H320.309V281.08H318.229V286.08C318.229 286.533 318.329 286.867 318.529 287.08C318.743 287.293 319.089 287.4 319.569 287.4C319.849 287.4 320.096 287.373 320.309 287.32V288.92C319.989 289.04 319.563 289.1 319.029 289.1C318.203 289.1 317.549 288.86 317.069 288.38C316.589 287.9 316.349 287.227 316.349 286.36V281.08H314.509V279.38H315.029C315.523 279.38 315.889 279.247 316.129 278.98C316.383 278.7 316.509 278.34 316.509 277.9V276.34H318.229ZM324.701 286.72C325.288 287.32 326.001 287.62 326.841 287.62C327.681 287.62 328.388 287.32 328.961 286.72C329.548 286.107 329.841 285.26 329.841 284.18C329.841 283.113 329.548 282.28 328.961 281.68C328.388 281.067 327.681 280.76 326.841 280.76C326.001 280.76 325.288 281.067 324.701 281.68C324.128 282.28 323.841 283.113 323.841 284.18C323.841 285.26 324.128 286.107 324.701 286.72ZM323.301 280.54C324.234 279.567 325.414 279.08 326.841 279.08C328.268 279.08 329.441 279.567 330.361 280.54C331.294 281.5 331.761 282.713 331.761 284.18C331.761 285.66 331.301 286.887 330.381 287.86C329.461 288.82 328.281 289.3 326.841 289.3C325.401 289.3 324.221 288.82 323.301 287.86C322.381 286.887 321.921 285.66 321.921 284.18C321.921 282.713 322.381 281.5 323.301 280.54ZM338.466 289.52L340.286 289.1C340.353 289.78 340.626 290.34 341.106 290.78C341.586 291.233 342.186 291.46 342.906 291.46C344.866 291.46 345.846 290.42 345.846 288.34V286.96C345.606 287.427 345.226 287.807 344.706 288.1C344.2 288.393 343.6 288.54 342.906 288.54C341.626 288.54 340.566 288.107 339.726 287.24C338.9 286.36 338.486 285.24 338.486 283.88C338.486 282.56 338.9 281.453 339.726 280.56C340.553 279.653 341.613 279.2 342.906 279.2C344.373 279.2 345.36 279.707 345.866 280.72V279.38H347.726V288.28C347.726 288.92 347.64 289.513 347.466 290.06C347.306 290.62 347.046 291.133 346.686 291.6C346.326 292.067 345.82 292.433 345.166 292.7C344.526 292.967 343.773 293.1 342.906 293.1C341.72 293.1 340.713 292.76 339.886 292.08C339.06 291.413 338.586 290.56 338.466 289.52ZM343.186 286.96C344 286.96 344.66 286.68 345.166 286.12C345.673 285.547 345.926 284.8 345.926 283.88C345.926 282.96 345.673 282.22 345.166 281.66C344.66 281.087 344 280.8 343.186 280.8C342.36 280.8 341.686 281.08 341.166 281.64C340.66 282.2 340.406 282.947 340.406 283.88C340.406 284.827 340.653 285.58 341.146 286.14C341.653 286.687 342.333 286.96 343.186 286.96ZM352.709 286.72C353.296 287.32 354.009 287.62 354.849 287.62C355.689 287.62 356.396 287.32 356.969 286.72C357.556 286.107 357.849 285.26 357.849 284.18C357.849 283.113 357.556 282.28 356.969 281.68C356.396 281.067 355.689 280.76 354.849 280.76C354.009 280.76 353.296 281.067 352.709 281.68C352.136 282.28 351.849 283.113 351.849 284.18C351.849 285.26 352.136 286.107 352.709 286.72ZM351.309 280.54C352.242 279.567 353.422 279.08 354.849 279.08C356.276 279.08 357.449 279.567 358.369 280.54C359.302 281.5 359.769 282.713 359.769 284.18C359.769 285.66 359.309 286.887 358.389 287.86C357.469 288.82 356.289 289.3 354.849 289.3C353.409 289.3 352.229 288.82 351.309 287.86C350.389 286.887 349.929 285.66 349.929 284.18C349.929 282.713 350.389 281.5 351.309 280.54ZM362.081 288.7C361.815 288.433 361.681 288.107 361.681 287.72C361.681 287.333 361.815 287.007 362.081 286.74C362.348 286.46 362.675 286.32 363.061 286.32C363.448 286.32 363.775 286.46 364.041 286.74C364.321 287.007 364.461 287.333 364.461 287.72C364.461 288.107 364.321 288.433 364.041 288.7C363.775 288.967 363.448 289.1 363.061 289.1C362.675 289.1 362.348 288.967 362.081 288.7Z" fill="#F7FDFC"/>
<rect x="87" y="344" width="213" height="80" rx="40" fill="white"/>
<path d="M147.493 391.18C145.933 391.18 144.62 390.893 143.553 390.32C142.5 389.733 141.707 388.9 141.173 387.82C140.64 386.74 140.373 385.453 140.373 383.96C140.373 382.467 140.653 381.18 141.213 380.1C141.787 379.02 142.6 378.187 143.653 377.6C144.72 377.013 146 376.72 147.493 376.72C148.52 376.72 149.413 376.867 150.173 377.16C150.933 377.44 151.613 377.853 152.213 378.4L151.473 380.02C151.047 379.66 150.633 379.373 150.233 379.16C149.833 378.947 149.42 378.793 148.993 378.7C148.567 378.593 148.067 378.54 147.493 378.54C145.88 378.54 144.653 379.013 143.813 379.96C142.973 380.907 142.553 382.247 142.553 383.98C142.553 385.74 142.953 387.08 143.753 388C144.567 388.92 145.84 389.38 147.573 389.38C148.173 389.38 148.767 389.327 149.353 389.22C149.94 389.1 150.507 388.927 151.053 388.7L150.653 389.68V385.06H147.173V383.5H152.393V390.16C151.78 390.467 151.027 390.713 150.133 390.9C149.253 391.087 148.373 391.18 147.493 391.18ZM160.04 391.18C158.414 391.18 157.134 390.72 156.2 389.8C155.267 388.88 154.8 387.607 154.8 385.98C154.8 384.927 155 384.007 155.4 383.22C155.814 382.433 156.38 381.827 157.1 381.4C157.834 380.96 158.68 380.74 159.64 380.74C160.587 380.74 161.38 380.94 162.02 381.34C162.66 381.74 163.147 382.307 163.48 383.04C163.814 383.76 163.98 384.613 163.98 385.6V386.24H156.38V385.08H162.6L162.26 385.34C162.26 384.34 162.034 383.567 161.58 383.02C161.14 382.46 160.5 382.18 159.66 382.18C158.727 382.18 158.007 382.507 157.5 383.16C156.994 383.8 156.74 384.687 156.74 385.82V386.02C156.74 387.207 157.027 388.1 157.6 388.7C158.187 389.3 159.014 389.6 160.08 389.6C160.667 389.6 161.214 389.52 161.72 389.36C162.24 389.187 162.734 388.907 163.2 388.52L163.86 389.9C163.394 390.313 162.827 390.633 162.16 390.86C161.494 391.073 160.787 391.18 160.04 391.18ZM170.199 391.18C169.105 391.18 168.279 390.887 167.719 390.3C167.159 389.7 166.879 388.807 166.879 387.62V382.48H164.919V380.92H166.879V378.26L168.899 377.72V380.92H171.699V382.48H168.899V387.44C168.899 388.187 169.032 388.72 169.299 389.04C169.565 389.36 169.952 389.52 170.459 389.52C170.712 389.52 170.932 389.5 171.119 389.46C171.319 389.407 171.499 389.347 171.659 389.28V390.92C171.459 391 171.225 391.06 170.959 391.1C170.692 391.153 170.439 391.18 170.199 391.18ZM183.816 391.18C182.683 391.18 181.656 391.04 180.736 390.76C179.816 390.467 179.016 390.053 178.336 389.52L179.036 387.88C179.49 388.227 179.956 388.513 180.436 388.74C180.93 388.967 181.45 389.14 181.996 389.26C182.556 389.367 183.163 389.42 183.816 389.42C184.936 389.42 185.756 389.22 186.276 388.82C186.81 388.42 187.076 387.893 187.076 387.24C187.076 386.68 186.89 386.247 186.516 385.94C186.156 385.633 185.516 385.387 184.596 385.2L182.416 384.76C181.123 384.493 180.156 384.06 179.516 383.46C178.89 382.847 178.576 382.013 178.576 380.96C178.576 380.107 178.803 379.36 179.256 378.72C179.71 378.08 180.336 377.587 181.136 377.24C181.95 376.893 182.896 376.72 183.976 376.72C184.976 376.72 185.896 376.867 186.736 377.16C187.576 377.44 188.283 377.86 188.856 378.42L188.176 380C187.576 379.48 186.936 379.1 186.256 378.86C185.576 378.607 184.803 378.48 183.936 378.48C182.91 378.48 182.103 378.693 181.516 379.12C180.943 379.547 180.656 380.127 180.656 380.86C180.656 381.447 180.836 381.907 181.196 382.24C181.57 382.573 182.183 382.827 183.036 383L185.216 383.42C186.563 383.7 187.556 384.133 188.196 384.72C188.836 385.293 189.156 386.087 189.156 387.1C189.156 387.913 188.936 388.627 188.496 389.24C188.07 389.853 187.456 390.333 186.656 390.68C185.856 391.013 184.91 391.18 183.816 391.18ZM195.394 391.18C194.301 391.18 193.474 390.887 192.914 390.3C192.354 389.7 192.074 388.807 192.074 387.62V382.48H190.114V380.92H192.074V378.26L194.094 377.72V380.92H196.894V382.48H194.094V387.44C194.094 388.187 194.227 388.72 194.494 389.04C194.761 389.36 195.147 389.52 195.654 389.52C195.907 389.52 196.127 389.5 196.314 389.46C196.514 389.407 196.694 389.347 196.854 389.28V390.92C196.654 391 196.421 391.06 196.154 391.1C195.887 391.153 195.634 391.18 195.394 391.18ZM202.6 391.18C201.706 391.18 200.926 390.973 200.26 390.56C199.593 390.147 199.073 389.547 198.7 388.76C198.34 387.973 198.16 387.04 198.16 385.96C198.16 384.867 198.34 383.933 198.7 383.16C199.073 382.387 199.593 381.793 200.26 381.38C200.926 380.953 201.706 380.74 202.6 380.74C203.48 380.74 204.246 380.96 204.9 381.4C205.553 381.84 205.986 382.44 206.2 383.2H205.98L206.18 380.92H208.14C208.1 381.333 208.06 381.747 208.02 382.16C207.993 382.56 207.98 382.953 207.98 383.34V391H205.96V388.76H206.18C205.966 389.507 205.526 390.1 204.86 390.54C204.206 390.967 203.453 391.18 202.6 391.18ZM203.1 389.6C203.966 389.6 204.66 389.293 205.18 388.68C205.713 388.067 205.98 387.16 205.98 385.96C205.98 384.76 205.713 383.86 205.18 383.26C204.66 382.647 203.966 382.34 203.1 382.34C202.22 382.34 201.513 382.647 200.98 383.26C200.46 383.86 200.2 384.76 200.2 385.96C200.2 387.16 200.46 388.067 200.98 388.68C201.5 389.293 202.206 389.6 203.1 389.6ZM210.887 391V383.42C210.887 383.007 210.874 382.593 210.847 382.18C210.834 381.753 210.807 381.333 210.767 380.92H212.727L212.947 383.52H212.627C212.761 382.893 212.987 382.373 213.307 381.96C213.627 381.547 214.014 381.24 214.467 381.04C214.934 380.84 215.421 380.74 215.927 380.74C216.141 380.74 216.321 380.753 216.467 380.78C216.614 380.793 216.761 380.82 216.907 380.86L216.887 382.66C216.661 382.567 216.461 382.513 216.287 382.5C216.127 382.473 215.927 382.46 215.687 382.46C215.101 382.46 214.601 382.593 214.187 382.86C213.774 383.113 213.461 383.46 213.247 383.9C213.034 384.34 212.927 384.813 212.927 385.32V391H210.887ZM222.933 391.18C221.84 391.18 221.013 390.887 220.453 390.3C219.893 389.7 219.613 388.807 219.613 387.62V382.48H217.653V380.92H219.613V378.26L221.633 377.72V380.92H224.433V382.48H221.633V387.44C221.633 388.187 221.767 388.72 222.033 389.04C222.3 389.36 222.687 389.52 223.193 389.52C223.447 389.52 223.667 389.5 223.853 389.46C224.053 389.407 224.233 389.347 224.393 389.28V390.92C224.193 391 223.96 391.06 223.693 391.1C223.427 391.153 223.173 391.18 222.933 391.18ZM230.841 391.18C229.215 391.18 227.935 390.72 227.001 389.8C226.068 388.88 225.601 387.607 225.601 385.98C225.601 384.927 225.801 384.007 226.201 383.22C226.615 382.433 227.181 381.827 227.901 381.4C228.635 380.96 229.481 380.74 230.441 380.74C231.388 380.74 232.181 380.94 232.821 381.34C233.461 381.74 233.948 382.307 234.281 383.04C234.615 383.76 234.781 384.613 234.781 385.6V386.24H227.181V385.08H233.401L233.061 385.34C233.061 384.34 232.835 383.567 232.381 383.02C231.941 382.46 231.301 382.18 230.461 382.18C229.528 382.18 228.808 382.507 228.301 383.16C227.795 383.8 227.541 384.687 227.541 385.82V386.02C227.541 387.207 227.828 388.1 228.401 388.7C228.988 389.3 229.815 389.6 230.881 389.6C231.468 389.6 232.015 389.52 232.521 389.36C233.041 389.187 233.535 388.907 234.001 388.52L234.661 389.9C234.195 390.313 233.628 390.633 232.961 390.86C232.295 391.073 231.588 391.18 230.841 391.18ZM240.959 391.18C240.079 391.18 239.299 390.973 238.619 390.56C237.952 390.147 237.432 389.547 237.059 388.76C236.699 387.973 236.519 387.04 236.519 385.96C236.519 384.867 236.699 383.933 237.059 383.16C237.432 382.387 237.952 381.793 238.619 381.38C239.299 380.953 240.079 380.74 240.959 380.74C241.826 380.74 242.586 380.96 243.239 381.4C243.906 381.827 244.346 382.413 244.559 383.16H244.319V376.28H246.339V391H244.339V388.72H244.579C244.352 389.48 243.912 390.08 243.259 390.52C242.606 390.96 241.839 391.18 240.959 391.18ZM241.459 389.6C242.326 389.6 243.026 389.293 243.559 388.68C244.092 388.067 244.359 387.16 244.359 385.96C244.359 384.76 244.092 383.86 243.559 383.26C243.026 382.647 242.326 382.34 241.459 382.34C240.579 382.34 239.872 382.647 239.339 383.26C238.819 383.86 238.559 384.76 238.559 385.96C238.559 387.16 238.819 388.067 239.339 388.68C239.872 389.293 240.579 389.6 241.459 389.6Z" fill="#111928"/>
</g>
</g>
<defs>
<clipPath id="clip0_166_790">
<rect width="551" height="532" rx="20.2667" fill="white"/>
</clipPath>
<clipPath id="clip1_166_790">
<rect width="551" height="532" fill="white"/>
</clipPath>
</defs>
</svg>
